<?xml version="1.0" encoding="UTF-8" standalone="no"?>
<!-- Created with Inkscape (http://www.inkscape.org/) -->

<svg
   xmlns:dc="http://purl.org/dc/elements/1.1/"
   xmlns:cc="http://creativecommons.org/ns#"
   xmlns:rdf="http://www.w3.org/1999/02/22-rdf-syntax-ns#"
   xmlns:svg="http://www.w3.org/2000/svg"
   xmlns="http://www.w3.org/2000/svg"
   xmlns:sodipodi="http://sodipodi.sourceforge.net/DTD/sodipodi-0.dtd"
   xmlns:inkscape="http://www.inkscape.org/namespaces/inkscape"
   width="53.458202mm"
   height="18.189625mm"
   viewBox="0 0 53.458202 18.189625"
   version="1.1"
   id="svg8"
   inkscape:version="0.92.5 (2060ec1f9f, 2020-04-08)"
   sodipodi:docname="greatwall.svg">
  <defs
     id="defs2" />
  <sodipodi:namedview
     id="base"
     pagecolor="#ffffff"
     bordercolor="#666666"
     borderopacity="1.0"
     inkscape:pageopacity="0.0"
     inkscape:pageshadow="2"
     inkscape:zoom="1.8101934"
     inkscape:cx="74.377995"
     inkscape:cy="6.6601962"
     inkscape:document-units="mm"
     inkscape:current-layer="text45-8-3-6"
     showgrid="false"
     inkscape:window-width="1920"
     inkscape:window-height="1022"
     inkscape:window-x="0"
     inkscape:window-y="0"
     inkscape:window-maximized="1"
     fit-margin-top="0"
     fit-margin-left="0"
     fit-margin-right="0"
     fit-margin-bottom="0" />
  <metadata
     id="metadata5">
    <rdf:RDF>
      <cc:Work
         rdf:about="">
        <dc:format>image/svg+xml</dc:format>
        <dc:type
           rdf:resource="http://purl.org/dc/dcmitype/StillImage" />
        <dc:title></dc:title>
      </cc:Work>
    </rdf:RDF>
  </metadata>
  <g
     inkscape:groupmode="layer"
     id="layer2"
     inkscape:label="Layer 2"
     style="display:inline"
     transform="translate(-72.121788,-111.94087)">
    <g
       aria-label="GREAT "
       transform="matrix(0.26458333,0,0,0.26458333,44.249986,45.272333)"
       style="font-style:normal;font-weight:normal;font-size:40px;line-height:1.25;font-family:sans-serif;letter-spacing:0px;word-spacing:0px;display:inline;fill:#000000;fill-opacity:1;stroke:none;stroke-opacity:1"
       id="flowRoot10-1-3-9-3">
      <path
         d="m 108.15625,271.00781 q 0,-2.24609 0.50781,-4.29687 0.52735,-2.07032 1.48438,-3.84766 0.95703,-1.79687 2.30469,-3.24219 1.36718,-1.46484 3.04687,-2.5 1.67969,-1.05468 3.63281,-1.62109 1.97266,-0.56641 4.14063,-0.56641 1.71875,0 3.00781,0.23438 1.30859,0.21484 2.26562,0.5664 0.97657,0.33204 1.6211,0.74219 0.66406,0.41016 1.09375,0.78125 -0.0195,0 -0.0195,0.13672 0,0.29297 0.0391,1.07422 0.0586,0.78125 0.11719,1.73828 0.0781,0.95703 0.11718,1.95313 0.0586,0.97656 0.0586,1.69921 0,0.11719 -0.0781,0.27344 -0.0781,0.13672 -0.39062,0.13672 -0.17578,0 -0.42969,-0.0586 -0.41016,-0.11719 -1.03516,-0.52735 -0.625,-0.42968 -1.46484,-0.8789 -0.82031,-0.46875 -1.85547,-0.82032 -1.01562,-0.37109 -2.22656,-0.37109 -1.60156,0 -2.91016,0.68359 -1.30859,0.66407 -2.22656,1.875 -0.91797,1.19141 -1.42578,2.85157 -0.50781,1.64062 -0.50781,3.57422 0,1.69921 0.3125,3.18359 0.3125,1.48437 0.9375,2.57812 0.64453,1.07422 1.58203,1.69922 0.9375,0.625 2.20703,0.625 1.23047,0 2.79297,-0.52734 l 0.44922,-2.75391 h -3.73047 q 0.42969,-2.36328 0.74219,-3.71093 0.3125,-1.34766 0.58593,-2.03125 0.27344,-0.6836 0.56641,-0.85938 0.29297,-0.17578 0.68359,-0.17578 h 10.27344 q 0.44922,0 0.64453,0.0586 0.21485,0.0586 0.21485,0.41016 0,0.17578 -0.0391,0.42969 -0.0391,0.23437 -0.0977,0.58593 l -0.97657,3.28125 q -0.17578,0.625 -0.29296,0.97657 -0.11719,0.33203 -0.29297,0.50781 -0.17578,0.15625 -0.48828,0.19531 -0.29297,0.0195 -0.85938,0.0195 -0.3125,0 -0.37109,0.25391 -0.0586,0.25391 -0.0977,0.52734 -0.11719,0.85938 -0.23437,1.71875 -0.11719,0.83985 -0.23438,1.58203 -0.0977,0.72266 -0.21484,1.28907 -0.11719,0.54687 -0.23438,0.80078 -1.32812,0.83984 -2.42187,1.48437 -1.07422,0.625 -2.14844,1.03516 -1.07422,0.42969 -2.26562,0.64453 -1.19141,0.21484 -2.73438,0.21484 -2.75391,0 -5.15625,-0.99609 -2.40234,-0.99609 -4.17969,-2.79297 -1.75781,-1.8164 -2.77343,-4.3164 -1.01563,-2.5 -1.01563,-5.52735 z"
         style="font-style:normal;font-variant:normal;font-weight:normal;font-stretch:normal;font-size:40px;line-height:0;font-family:'Carter One';-inkscape-font-specification:'Carter One, Normal';font-variant-ligatures:normal;font-variant-caps:normal;font-variant-numeric:normal;font-feature-settings:normal;text-align:start;writing-mode:lr-tb;text-anchor:start;fill:#000000;stroke:none;stroke-opacity:1"
         id="path1019"
         inkscape:connector-curvature="0" />
      <path
         d="m 146.39844,282.0625 q -0.0195,0.17578 -0.0781,0.35156 -0.0391,0.15625 -0.2539,0.25391 -0.0781,0.0391 -0.78125,0.29297 -0.6836,0.23437 -1.60157,0.5664 -0.89843,0.3125 -1.79687,0.625 -0.87891,0.33203 -1.34766,0.50782 -0.23437,0.0976 -0.58594,0.19531 -0.33203,0.11719 -0.66406,0.11719 -0.27344,0 -0.48828,-0.13672 -0.19531,-0.13672 -0.19531,-0.50782 0,-0.85937 0.0391,-1.5625 0.0586,-0.72265 0.13672,-1.5039 0.0781,-0.78125 0.15625,-1.71875 0.0977,-0.95703 0.17578,-2.26563 0.0977,-1.71875 0.21484,-3.30078 0.11719,-1.60156 0.23438,-3.32031 l 0.27344,-3.33984 q 0.0586,-0.82032 0.11718,-1.66016 0.0586,-0.85938 0.11719,-1.75781 l 0.21485,-2.38282 q 0,-0.0391 -0.11719,-0.0391 -0.15625,0 -0.52735,0.0781 -0.37109,0.0586 -0.8789,0.15625 -0.50781,0.0976 -1.13281,0.21484 -0.60547,0.0977 -1.25,0.19531 -0.15625,0 -0.3125,-0.0586 -0.13672,-0.0781 -0.13672,-0.17578 0,-0.0781 0.0391,-0.11719 l 3.16406,-5.52734 q 1.07422,-0.23438 2.30469,-0.46875 1.25,-0.25391 2.67578,-0.44922 1.42578,-0.19531 3.02734,-0.3125 1.60157,-0.13672 3.39844,-0.13672 2.03125,0.0391 3.94531,0.41016 1.9336,0.35156 3.41797,1.21093 1.50391,0.83985 2.40235,2.30469 0.91797,1.44531 0.91797,3.67188 0,1.23046 -0.42969,2.26562 -0.41016,1.03516 -1.07422,1.875 -0.64453,0.82031 -1.42578,1.46484 -0.78125,0.625 -1.50391,1.07422 -0.70312,0.44922 -1.25,0.72266 -0.54687,0.25391 -0.74219,0.33203 0,0.0391 0.0195,0.0977 0.0391,0.0586 0.13671,0.23437 0.0977,0.15625 0.27344,0.46875 0.19531,0.29297 0.48828,0.82031 0.3125,0.46875 0.74219,1.25 0.42969,0.78125 1.01563,1.85547 0.60546,1.05469 1.38671,2.36328 0.78125,1.3086 1.79688,2.8125 0.33203,0.29297 0.76172,0.3711 0.42969,0.0586 0.80078,0.0781 0.37109,0 0.625,0.0391 0.25391,0.0195 0.25391,0.23437 0,0.15625 -0.33204,0.37109 -0.3125,0.19532 -0.74218,0.41016 -0.42969,0.21484 -0.87891,0.41016 -0.42969,0.19531 -0.66406,0.3125 -0.46875,0.23437 -0.97656,0.44922 -0.50782,0.21484 -1.09375,0.48828 -0.58594,0.2539 -1.3086,0.60547 -0.70312,0.35156 -1.60156,0.83984 -0.23438,0.13672 -0.44922,0.17578 -0.19531,0.0586 -0.37109,0.0586 -0.35157,0 -0.60547,-0.17578 -0.25391,-0.15625 -0.42969,-0.39062 -0.17578,-0.23438 -0.29297,-0.48828 -0.0977,-0.23438 -0.17578,-0.39063 l -5.82031,-12.26562 z m 1.1914,-13.22266 q 0.9961,0 2.07032,-0.50781 1.07421,-0.50781 1.95312,-1.30859 0.87891,-0.80078 1.44531,-1.81641 0.56641,-1.01562 0.56641,-2.05078 0,-2.83203 -3.39844,-2.83203 -0.64453,0 -1.07422,0.0976 -0.42968,0.0781 -0.78125,0.11719 z"
         style="font-style:normal;font-variant:normal;font-weight:normal;font-stretch:normal;font-size:40px;line-height:0;font-family:'Carter One';-inkscape-font-specification:'Carter One, Normal';font-variant-ligatures:normal;font-variant-caps:normal;font-variant-numeric:normal;font-feature-settings:normal;text-align:start;writing-mode:lr-tb;text-anchor:start;fill:#000000;stroke:none;stroke-opacity:1"
         id="path1021"
         inkscape:connector-curvature="0" />
      <path
         d="m 182.29687,267.41406 q -0.0781,0.27344 -0.29296,0.78125 -0.21485,0.48828 -0.50782,1.11328 -0.27343,0.625 -0.60547,1.34766 -0.3125,0.70312 -0.625,1.42578 -0.11718,0.27344 -0.21484,0.41016 -0.0977,0.11718 -0.3125,0.17578 -0.21484,0.0586 -0.60547,0.0781 -0.37109,0 -1.05469,0.0195 l -2.71484,0.0586 -0.54687,5.97656 h 10.01953 v 0.76172 q -0.0391,0.0391 -0.33203,0.52734 -0.29297,0.46875 -0.6836,1.13282 -0.39062,0.66406 -0.82031,1.34765 -0.42969,0.66406 -0.72266,1.07422 -0.19531,0.35156 -0.44922,0.54688 -0.2539,0.21484 -0.5664,0.3125 -0.29297,0.0976 -0.66406,0.11718 -0.35157,0.0195 -0.78125,0.0195 -1.75782,0 -3.67188,-0.0781 -1.89453,-0.0781 -3.78906,-0.19531 -1.89453,-0.11719 -3.71094,-0.27344 -1.79687,-0.13672 -3.33984,-0.29297 -0.13672,-0.0195 -0.25391,-0.15625 -0.0977,-0.13672 -0.0977,-0.3125 -0.0781,0 0.0977,-0.33203 0.19531,-0.33203 0.52734,-0.85938 0.33204,-0.52734 0.72266,-1.1914 0.41016,-0.6836 0.78125,-1.36719 l 0.3125,-4.39453 q 0.0781,-1.11328 0.11719,-1.66016 0.0586,-0.54687 0.0586,-0.58593 -1.17187,-0.0195 -1.75781,-0.11719 -0.56641,-0.0977 -0.56641,-0.42969 0,-0.15625 0.27344,-0.58594 0.29297,-0.42968 0.70313,-0.97656 0.41015,-0.56641 0.85937,-1.17187 0.46875,-0.60547 0.82031,-1.11329 l 0.48828,-6.64062 h -0.0586 q -0.42969,0.0195 -0.78125,0.0391 -0.35156,0 -0.64453,0 -0.9375,0 -1.34766,-0.0976 -0.39062,-0.11719 -0.39062,-0.41016 0,-0.13672 0.23437,-0.56641 0.23438,-0.42968 0.58594,-0.97656 0.35156,-0.56641 0.74219,-1.17187 0.39062,-0.625 0.70312,-1.15235 l 1.17188,-1.99219 h 8.16406 l 9.62891,-0.70312 q 0.0195,0 0.0977,0.0195 0.0977,0 0.19532,0.0586 0.0977,0.0391 0.17578,0.15625 0.0977,0.11719 0.0977,0.33204 l -0.29297,1.01562 q -0.13671,0.42969 -0.33203,0.91797 -0.19531,0.46875 -0.42968,0.97656 l -0.85938,2.26563 q -0.13672,0.33203 -0.3125,0.50781 -0.17578,0.17578 -0.74219,0.19531 -1.48437,0.0391 -3.32031,0.13672 -1.81641,0.0781 -4.17969,0.15625 -0.0781,0.27344 -0.0781,0.44922 0,0.15625 -0.0391,0.625 l -0.0977,0.89844 q -0.0391,0.625 -0.11719,1.34765 -0.0781,0.72266 -0.19531,1.77735 0.99609,-0.0391 1.93359,-0.0781 0.95703,-0.0391 1.73828,-0.0586 0.78125,-0.0391 1.34766,-0.0586 0.58594,-0.0195 0.82031,-0.0195 0.15625,0 0.35157,0.11719 0.19531,0.11719 0.19531,0.44922 0,0.15625 -0.0586,0.35156 z"
         style="font-style:normal;font-variant:normal;font-weight:normal;font-stretch:normal;font-size:40px;line-height:0;font-family:'Carter One';-inkscape-font-specification:'Carter One, Normal';font-variant-ligatures:normal;font-variant-caps:normal;font-variant-numeric:normal;font-feature-settings:normal;text-align:start;writing-mode:lr-tb;text-anchor:start;fill:#000000;stroke:none;stroke-opacity:1"
         id="path1023"
         inkscape:connector-curvature="0" />
      <path
         d="m 186.14453,282.19922 q 0.25391,-0.50781 0.52734,-1.13281 0.27344,-0.64454 0.50782,-1.38672 l 0.52734,-1.28907 q -0.35156,-0.52734 -0.72266,-1.13281 -0.35156,-0.625 -0.64453,-1.26953 -0.29297,-0.64453 -0.48828,-1.28906 -0.17578,-0.64453 -0.17578,-1.25 0,-0.0391 0.29297,-0.0586 0.3125,-0.0391 0.76172,-0.0586 0.46875,-0.0195 0.99609,-0.0195 0.54688,-0.0195 0.9961,-0.0195 0.46875,-0.0195 0.76171,-0.0195 0.3125,-0.0195 0.3125,-0.0195 0.44922,-1.17188 0.87891,-2.22657 0.42969,-1.05468 0.85938,-2.1289 0.42968,-1.07422 0.85937,-2.1875 0.42969,-1.13282 0.85938,-2.42188 0.82031,-2.42187 1.60156,-4.25781 0.78125,-1.83594 1.46484,-3.41797 0.0781,-0.19531 0.25391,-0.35156 0.19531,-0.17578 0.41015,-0.29297 0.21485,-0.11719 0.41016,-0.19531 0.21484,-0.0781 0.33203,-0.11719 0.0781,-0.0195 0.58594,-0.17578 0.52734,-0.15625 1.19141,-0.33203 0.66406,-0.17578 1.30859,-0.3125 0.66406,-0.13672 1.05469,-0.13672 h 0.35156 q 0.3125,0 0.58594,0.15625 0.29297,0.13672 0.39062,0.5664 0.9375,2.40235 1.99219,5.25391 1.07422,2.83203 2.08984,6.25 0.54688,1.83594 1.07422,3.47656 0.52735,1.64063 1.05469,3.20313 0.52734,1.5625 1.05469,3.125 0.54687,1.5625 1.11328,3.22265 0.17578,0.70313 0.35156,1.11329 0.19531,0.41015 0.35156,0.64453 0.15625,0.23437 0.25391,0.35156 0.0977,0.0977 0.0977,0.21484 0,0.11719 -0.3711,0.23438 l -4.19922,1.36719 q -0.46875,0.17578 -0.95703,0.35156 -0.48828,0.17578 -0.91797,0.3125 -0.42968,0.13672 -0.76172,0.21484 -0.3125,0.0977 -0.44921,0.0977 h -0.11719 q -0.27344,0 -0.39063,-0.17578 -0.11718,-0.15625 -0.15625,-0.3125 -0.19531,-0.64453 -0.39062,-1.15235 -0.19531,-0.52734 -0.39063,-1.03515 -0.17578,-0.52735 -0.37109,-1.11328 -0.17578,-0.58594 -0.35156,-1.38672 -0.0391,-0.0977 -0.21485,-0.15625 -0.17578,-0.0781 -0.42968,-0.11719 -0.23438,-0.0391 -0.50782,-0.0391 -0.27343,-0.0195 -0.50781,-0.0195 -0.74219,0 -1.21094,0.0195 -0.44922,0 -0.80078,0.0195 -0.35156,0 -0.68359,0.0195 -0.3125,0 -0.78125,0 -0.56641,0 -1.17188,0 -0.58593,-0.0195 -1.07422,-0.0391 l -1.11328,-0.0391 q -0.50781,1.40625 -1.01562,2.63672 -0.50781,1.23047 -1.09375,2.53907 -0.0391,0.15625 -0.19531,0.2539 -0.13672,0.0977 -0.29297,0.0977 -0.11719,0 -0.13672,-0.0195 -1.89453,-0.6836 -3.1836,-1.34766 -1.28906,-0.66406 -2.24609,-1.28906 z m 13.16406,-17.5586 q -0.46875,1.73829 -0.9375,3.16407 -0.44922,1.40625 -0.83984,2.5 -0.37109,1.09375 -0.64453,1.85547 -0.27344,0.74218 -0.39063,1.15234 v 0.17578 q 0,0.11719 -0.0195,0.15625 h 4.6875 q -0.21484,-0.95703 -0.46875,-1.93359 -0.23437,-0.97657 -0.46875,-2.05078 -0.23437,-1.07422 -0.46875,-2.30469 -0.23437,-1.23047 -0.44922,-2.71485 z"
         style="font-style:normal;font-variant:normal;font-weight:normal;font-stretch:normal;font-size:40px;line-height:0;font-family:'Carter One';-inkscape-font-specification:'Carter One, Normal';font-variant-ligatures:normal;font-variant-caps:normal;font-variant-numeric:normal;font-feature-settings:normal;text-align:start;writing-mode:lr-tb;text-anchor:start;fill:#000000;stroke:none;stroke-opacity:1"
         id="path1025"
         inkscape:connector-curvature="0" />
      <path
         d="m 217.04297,284.25 q 0.0977,-1.42578 0.19531,-2.75391 0.0977,-1.32812 0.17578,-2.57812 l 0.70313,-9.21875 q 0.11718,-1.05469 0.19531,-1.91406 0.0781,-0.87891 0.11719,-1.69922 0.0586,-0.83985 0.0977,-1.67969 0.0586,-0.85938 0.11719,-1.89453 -0.64453,-0.0195 -1.36719,-0.0195 -0.70312,0 -1.48437,0 h -3.76953 q -0.21485,0 -0.27344,-0.15625 -0.0391,-0.17578 -0.0391,-0.3125 v -0.13672 l 2.14843,-5.64453 -0.0195,-0.0781 q 0,-0.0976 0.11719,-0.15625 0.13672,-0.0781 0.58594,-0.11719 2.69531,-0.15625 5.21484,-0.29296 2.53906,-0.15625 5,-0.27344 2.48047,-0.11719 4.94141,-0.23438 2.48047,-0.11718 5.09765,-0.21484 0.23438,0 0.48829,0.0586 0.27343,0.0586 0.27343,0.42969 0,0.0391 -0.0195,0.0781 -0.0195,0.0391 -0.0195,0.0781 -0.3125,0.80078 -0.58594,1.52344 -0.2539,0.72265 -0.50781,1.42578 -0.25391,0.70312 -0.52734,1.42578 -0.25391,0.72266 -0.56641,1.52344 -0.0195,0.0195 -0.0781,0.19531 -0.0586,0.15625 -0.17579,0.37109 -0.11718,0.19532 -0.3125,0.3711 -0.19531,0.17578 -0.48828,0.19531 -0.0977,-0.0195 -0.19531,-0.0195 -0.0977,0 -0.21484,0 h -5.21485 q -0.0977,0.99609 -0.19531,2.10937 -0.0781,1.11329 -0.19531,2.16797 l -1.42578,15.25391 q -0.0195,0.17578 -0.0781,0.35156 -0.0391,0.17578 -0.2539,0.25391 l -5.52735,1.99219 q -0.21484,0.0781 -0.5664,0.19531 -0.35157,0.11719 -0.6836,0.11719 -0.27344,0 -0.48828,-0.13672 -0.19531,-0.13672 -0.19531,-0.50782 z"
         style="font-style:normal;font-variant:normal;font-weight:normal;font-stretch:normal;font-size:40px;line-height:0;font-family:'Carter One';-inkscape-font-specification:'Carter One, Normal';font-variant-ligatures:normal;font-variant-caps:normal;font-variant-numeric:normal;font-feature-settings:normal;text-align:start;writing-mode:lr-tb;text-anchor:start;fill:#000000;stroke:none;stroke-opacity:1"
         id="path1027"
         inkscape:connector-curvature="0" />
    </g>
    <g
       aria-label="WALL"
       style="font-style:normal;font-weight:normal;font-size:10.58333302px;line-height:130.05000305;font-family:sans-serif;letter-spacing:0px;word-spacing:0px;display:inline;fill:#000000;fill-opacity:1;stroke:none;stroke-width:0.26458332;stroke-opacity:1"
       id="text45-4-6-8-5"
       transform="translate(-3.0489095,-0.46508788)">
      <path
         d="m 109.64799,123.23145 q 0.0258,-0.093 0.0568,-0.14986 0.031,-0.062 0.13953,-0.0879 l 1.52445,-0.3514 q 0.0103,0 0.0258,-0.005 0.0155,-0.005 0.0258,-0.005 0.0724,0 0.0982,0.062 0.031,0.062 0.031,0.11885 0,0.0103 -0.005,0.0413 0,0.031 -0.005,0.0413 l -2.1394,6.5009 q -0.0827,0.21187 -0.13953,0.34623 -0.0517,0.12919 -0.10852,0.21704 -0.0517,0.0827 -0.12402,0.13953 -0.0672,0.0568 -0.18604,0.11369 -0.11368,0.0568 -0.28938,0.12919 -0.1757,0.0775 -0.44442,0.2067 -0.093,0.0465 -0.14469,0.0465 -0.0827,0 -0.12403,-0.062 -0.0413,-0.062 -0.0672,-0.13953 l -0.88366,-3.14709 -1.10588,2.27893 q -0.0258,0.062 -0.11886,0.16536 -0.093,0.10336 -0.21187,0.21188 -0.11369,0.10852 -0.23254,0.21187 -0.11369,0.0982 -0.18604,0.1602 -0.0672,0.0568 -0.14469,0.11369 -0.0724,0.0568 -0.14986,0.10335 -0.0775,0.0465 -0.14987,0.0724 -0.0672,0.031 -0.12919,0.031 -0.13436,0 -0.1757,-0.14986 l -2.00504,-7.06934 q -0.0103,-0.0413 -0.0258,-0.0827 -0.0103,-0.0413 -0.0103,-0.0775 0,-0.12919 0.062,-0.21704 0.062,-0.0878 0.21704,-0.14986 0.15503,-0.062 0.41341,-0.0982 0.25838,-0.0413 0.65629,-0.0672 0.18603,-0.0258 0.31006,-0.0362 0.12919,-0.0103 0.21704,-0.0103 0.14986,0 0.19637,0.0465 0.0465,0.0465 0.0827,0.15503 l 1.06454,4.09794 0.88366,-1.51929 -0.35656,-1.55546 q -0.031,-0.12402 -0.0258,-0.18603 0,-0.11886 0.062,-0.1912 0.062,-0.0724 0.20671,-0.11886 0.14469,-0.0465 0.37723,-0.0827 0.23771,-0.0362 0.57878,-0.0827 0.14986,-0.0207 0.25838,-0.031 0.10852,-0.0103 0.18604,-0.0103 0.15503,0 0.21187,0.0465 0.0568,0.0465 0.0827,0.14986 l 0.7028,3.18327 z"
         style="font-style:normal;font-variant:normal;font-weight:normal;font-stretch:normal;font-size:10.58333302px;font-family:'Carter One';-inkscape-font-specification:'Carter One, Normal';font-variant-ligatures:normal;font-variant-caps:normal;font-variant-numeric:normal;font-feature-settings:normal;text-align:start;writing-mode:lr-tb;text-anchor:start;fill:#000000;stroke:none;stroke-width:0.26458332;stroke-opacity:1"
         id="path1001"
         inkscape:connector-curvature="0" />
      <path
         d="m 111.05359,129.8667 q 0.0672,-0.13435 0.13952,-0.29972 0.0724,-0.17053 0.13436,-0.3669 l 0.13953,-0.34107 q -0.093,-0.13952 -0.19121,-0.29972 -0.093,-0.16536 -0.17053,-0.3359 -0.0775,-0.17053 -0.12919,-0.34106 -0.0465,-0.17053 -0.0465,-0.33073 0,-0.0103 0.0775,-0.0155 0.0827,-0.0103 0.20153,-0.0155 0.12403,-0.005 0.26355,-0.005 0.1447,-0.005 0.26355,-0.005 0.12403,-0.005 0.20154,-0.005 0.0827,-0.005 0.0827,-0.005 0.11886,-0.31005 0.23255,-0.58911 0.11369,-0.27905 0.22738,-0.56327 0.11368,-0.28422 0.22737,-0.57878 0.11369,-0.29972 0.22738,-0.64078 0.21704,-0.64079 0.42374,-1.12655 0.20671,-0.48576 0.38758,-0.90434 0.0207,-0.0517 0.0672,-0.093 0.0517,-0.0465 0.10852,-0.0775 0.0568,-0.031 0.10852,-0.0517 0.0568,-0.0207 0.0878,-0.031 0.0207,-0.005 0.15503,-0.0465 0.13952,-0.0413 0.31522,-0.0879 0.1757,-0.0465 0.34624,-0.0827 0.1757,-0.0362 0.27905,-0.0362 h 0.093 q 0.0827,0 0.15503,0.0413 0.0775,0.0362 0.10335,0.14987 0.24804,0.63562 0.5271,1.39009 0.28422,0.74931 0.55294,1.65365 0.14469,0.48576 0.28422,0.91984 0.13952,0.43408 0.27905,0.84749 0.13952,0.41341 0.27905,0.82682 0.1447,0.41342 0.29456,0.85267 0.0465,0.18603 0.093,0.29455 0.0517,0.10852 0.093,0.17053 0.0413,0.062 0.0672,0.093 0.0258,0.0258 0.0258,0.0568 0,0.031 -0.0982,0.062 l -1.11104,0.36173 q -0.12402,0.0465 -0.25321,0.093 -0.12919,0.0465 -0.24288,0.0827 -0.11369,0.0362 -0.20154,0.0568 -0.0827,0.0258 -0.11886,0.0258 h -0.031 q -0.0724,0 -0.10336,-0.0465 -0.031,-0.0413 -0.0413,-0.0827 -0.0517,-0.17053 -0.10335,-0.30489 -0.0517,-0.13952 -0.10335,-0.27388 -0.0465,-0.13953 -0.0982,-0.29456 -0.0465,-0.15503 -0.093,-0.3669 -0.0103,-0.0258 -0.0568,-0.0413 -0.0465,-0.0207 -0.11369,-0.031 -0.062,-0.0103 -0.13436,-0.0103 -0.0723,-0.005 -0.13435,-0.005 -0.19637,0 -0.3204,0.005 -0.11885,0 -0.21187,0.005 -0.093,0 -0.18087,0.005 -0.0827,0 -0.2067,0 -0.14987,0 -0.31006,0 -0.15503,-0.005 -0.28422,-0.0103 l -0.29456,-0.0103 q -0.13436,0.37207 -0.26872,0.69763 -0.13436,0.32556 -0.28938,0.6718 -0.0103,0.0413 -0.0517,0.0672 -0.0362,0.0258 -0.0775,0.0258 -0.031,0 -0.0362,-0.005 -0.50126,-0.18087 -0.84233,-0.35657 -0.34106,-0.1757 -0.59427,-0.34107 z m 3.48299,-4.64571 q -0.12403,0.45992 -0.24805,0.83716 -0.11886,0.37207 -0.22221,0.66146 -0.0982,0.28939 -0.17053,0.49093 -0.0724,0.19637 -0.10335,0.30489 v 0.0465 q 0,0.031 -0.005,0.0413 h 1.24023 q -0.0568,-0.25322 -0.12402,-0.5116 -0.062,-0.25838 -0.12402,-0.5426 -0.062,-0.28422 -0.12403,-0.60978 -0.062,-0.32557 -0.11885,-0.71831 z"
         style="font-style:normal;font-variant:normal;font-weight:normal;font-stretch:normal;font-size:10.58333302px;font-family:'Carter One';-inkscape-font-specification:'Carter One, Normal';font-variant-ligatures:normal;font-variant-caps:normal;font-variant-numeric:normal;font-feature-settings:normal;text-align:start;writing-mode:lr-tb;text-anchor:start;fill:#000000;stroke:none;stroke-width:0.26458332;stroke-opacity:1"
         id="path1003"
         inkscape:connector-curvature="0" />
      <path
         d="m 121.33203,122.83871 q -0.005,0.12402 -0.0207,0.31006 -0.0155,0.18087 -0.0362,0.38757 -0.0155,0.20154 -0.0413,0.41341 -0.0207,0.20671 -0.0413,0.38241 -0.0155,0.1757 -0.0258,0.30489 -0.0103,0.12402 -0.0103,0.1602 -0.0207,0.32039 -0.0465,0.59428 -0.0207,0.27388 -0.0465,0.5426 -0.0258,0.26872 -0.0568,0.5581 -0.0258,0.28422 -0.0568,0.63046 -0.031,0.34623 -0.0723,0.76997 -0.0362,0.42375 -0.0775,0.97152 l 2.1394,-0.21704 q 0.1447,-0.0155 0.23772,-0.0155 0.11368,0 0.13952,0.0362 0.031,0.0362 0.031,0.11369 0,0.0103 -0.005,0.031 -0.005,0.0155 -0.0258,0.0672 -0.0155,0.0517 -0.0517,0.14987 -0.031,0.0982 -0.0879,0.27388 l -0.11369,0.34107 q -0.0569,0.16536 -0.10852,0.29972 -0.0465,0.12919 -0.11886,0.22738 -0.0723,0.093 -0.18087,0.14986 -0.10852,0.0568 -0.27905,0.0723 -0.10852,0.0103 -0.29455,0.0155 -0.18604,0.0103 -0.42892,0.0155 -0.24288,0.0103 -0.5271,0.0207 -0.27905,0.0103 -0.57361,0.0258 -0.28938,0.0103 -0.58394,0.0103 -0.29456,0.005 -0.55811,0.0103 -0.26355,0.005 -0.48575,0.0103 -0.22221,0.005 -0.36691,0.0103 -0.13436,0 -0.19637,-0.0207 -0.0568,-0.0207 -0.0568,-0.0672 0,-0.0568 0.0362,-0.16536 0.0362,-0.10336 0.093,-0.23255 0.0568,-0.13436 0.12402,-0.27388 0.0724,-0.1447 0.13953,-0.27906 l 0.13953,-1.84485 q 0.0413,-0.47025 0.0827,-0.95601 0.0413,-0.48576 0.0724,-0.94051 l 0.0879,-1.36943 q 0.031,-0.48575 0.0413,-0.7028 0.0103,-0.2222 0.0103,-0.24287 0.0103,-0.093 0.0155,-0.15503 0.005,-0.062 0.0155,-0.10336 0.0155,-0.0413 0.0413,-0.062 0.0258,-0.0207 0.0775,-0.031 l 1.81385,-0.42892 q 0.0568,-0.0207 0.13952,-0.0207 0.0568,0 0.0775,0.0362 0.0258,0.031 0.0258,0.12403 0,0.0103 -0.005,0.031 0,0.0155 0,0.031 z"
         style="font-style:normal;font-variant:normal;font-weight:normal;font-stretch:normal;font-size:10.58333302px;font-family:'Carter One';-inkscape-font-specification:'Carter One, Normal';font-variant-ligatures:normal;font-variant-caps:normal;font-variant-numeric:normal;font-feature-settings:normal;text-align:start;writing-mode:lr-tb;text-anchor:start;fill:#000000;stroke:none;stroke-width:0.26458332;stroke-opacity:1"
         id="path1005"
         inkscape:connector-curvature="0" />
      <path
         d="m 126.61336,122.83871 q -0.005,0.12402 -0.0207,0.31006 -0.0155,0.18087 -0.0362,0.38757 -0.0155,0.20154 -0.0414,0.41341 -0.0207,0.20671 -0.0413,0.38241 -0.0155,0.1757 -0.0258,0.30489 -0.0103,0.12402 -0.0103,0.1602 -0.0207,0.32039 -0.0465,0.59428 -0.0207,0.27388 -0.0465,0.5426 -0.0258,0.26872 -0.0568,0.5581 -0.0258,0.28422 -0.0568,0.63046 -0.031,0.34623 -0.0723,0.76997 -0.0362,0.42375 -0.0775,0.97152 l 2.13941,-0.21704 q 0.14469,-0.0155 0.23771,-0.0155 0.11369,0 0.13952,0.0362 0.031,0.0362 0.031,0.11369 0,0.0103 -0.005,0.031 -0.005,0.0155 -0.0258,0.0672 -0.0155,0.0517 -0.0517,0.14987 -0.031,0.0982 -0.0879,0.27388 l -0.11369,0.34107 q -0.0568,0.16536 -0.10852,0.29972 -0.0465,0.12919 -0.11886,0.22738 -0.0723,0.093 -0.18086,0.14986 -0.10852,0.0568 -0.27906,0.0723 -0.10852,0.0103 -0.29455,0.0155 -0.18604,0.0103 -0.42892,0.0155 -0.24288,0.0103 -0.5271,0.0207 -0.27905,0.0103 -0.5736,0.0258 -0.28939,0.0103 -0.58395,0.0103 -0.29455,0.005 -0.5581,0.0103 -0.26355,0.005 -0.48576,0.0103 -0.22221,0.005 -0.3669,0.0103 -0.13436,0 -0.19637,-0.0207 -0.0568,-0.0207 -0.0568,-0.0672 0,-0.0568 0.0362,-0.16536 0.0362,-0.10336 0.093,-0.23255 0.0568,-0.13436 0.12403,-0.27388 0.0723,-0.1447 0.13952,-0.27906 l 0.13953,-1.84485 q 0.0413,-0.47025 0.0827,-0.95601 0.0413,-0.48576 0.0724,-0.94051 l 0.0879,-1.36943 q 0.031,-0.48575 0.0413,-0.7028 0.0103,-0.2222 0.0103,-0.24287 0.0103,-0.093 0.0155,-0.15503 0.005,-0.062 0.0155,-0.10336 0.0155,-0.0413 0.0413,-0.062 0.0258,-0.0207 0.0775,-0.031 l 1.81384,-0.42892 q 0.0568,-0.0207 0.13952,-0.0207 0.0568,0 0.0775,0.0362 0.0258,0.031 0.0258,0.12403 0,0.0103 -0.005,0.031 0,0.0155 0,0.031 z"
         style="font-style:normal;font-variant:normal;font-weight:normal;font-stretch:normal;font-size:10.58333302px;font-family:'Carter One';-inkscape-font-specification:'Carter One, Normal';font-variant-ligatures:normal;font-variant-caps:normal;font-variant-numeric:normal;font-feature-settings:normal;text-align:start;writing-mode:lr-tb;text-anchor:start;fill:#000000;stroke:none;stroke-width:0.26458332;stroke-opacity:1"
         id="path1007"
         inkscape:connector-curvature="0" />
    </g>
    <g
       aria-label="GREAT "
       transform="matrix(0.26458333,0,0,0.26458333,43.637744,44.683963)"
       style="font-style:normal;font-weight:normal;font-size:40px;line-height:1.25;font-family:sans-serif;letter-spacing:0px;word-spacing:0px;display:inline;opacity:1;vector-effect:none;fill:#800000;fill-opacity:1;stroke:#ffffff;stroke-width:1;stroke-linecap:butt;stroke-linejoin:miter;stroke-miterlimit:4;stroke-dasharray:none;stroke-dashoffset:0;stroke-opacity:1"
       id="flowRoot10-7-8-9">
      <path
         d="m 108.15625,271.00781 q 0,-2.24609 0.50781,-4.29687 0.52735,-2.07032 1.48438,-3.84766 0.95703,-1.79687 2.30469,-3.24219 1.36718,-1.46484 3.04687,-2.5 1.67969,-1.05468 3.63281,-1.62109 1.97266,-0.56641 4.14063,-0.56641 1.71875,0 3.00781,0.23438 1.30859,0.21484 2.26562,0.5664 0.97657,0.33204 1.6211,0.74219 0.66406,0.41016 1.09375,0.78125 -0.0195,0 -0.0195,0.13672 0,0.29297 0.0391,1.07422 0.0586,0.78125 0.11719,1.73828 0.0781,0.95703 0.11718,1.95313 0.0586,0.97656 0.0586,1.69921 0,0.11719 -0.0781,0.27344 -0.0781,0.13672 -0.39062,0.13672 -0.17578,0 -0.42969,-0.0586 -0.41016,-0.11719 -1.03516,-0.52735 -0.625,-0.42968 -1.46484,-0.8789 -0.82031,-0.46875 -1.85547,-0.82032 -1.01562,-0.37109 -2.22656,-0.37109 -1.60156,0 -2.91016,0.68359 -1.30859,0.66407 -2.22656,1.875 -0.91797,1.19141 -1.42578,2.85157 -0.50781,1.64062 -0.50781,3.57422 0,1.69921 0.3125,3.18359 0.3125,1.48437 0.9375,2.57812 0.64453,1.07422 1.58203,1.69922 0.9375,0.625 2.20703,0.625 1.23047,0 2.79297,-0.52734 l 0.44922,-2.75391 h -3.73047 q 0.42969,-2.36328 0.74219,-3.71093 0.3125,-1.34766 0.58593,-2.03125 0.27344,-0.6836 0.56641,-0.85938 0.29297,-0.17578 0.68359,-0.17578 h 10.27344 q 0.44922,0 0.64453,0.0586 0.21485,0.0586 0.21485,0.41016 0,0.17578 -0.0391,0.42969 -0.0391,0.23437 -0.0977,0.58593 l -0.97657,3.28125 q -0.17578,0.625 -0.29296,0.97657 -0.11719,0.33203 -0.29297,0.50781 -0.17578,0.15625 -0.48828,0.19531 -0.29297,0.0195 -0.85938,0.0195 -0.3125,0 -0.37109,0.25391 -0.0586,0.25391 -0.0977,0.52734 -0.11719,0.85938 -0.23437,1.71875 -0.11719,0.83985 -0.23438,1.58203 -0.0977,0.72266 -0.21484,1.28907 -0.11719,0.54687 -0.23438,0.80078 -1.32812,0.83984 -2.42187,1.48437 -1.07422,0.625 -2.14844,1.03516 -1.07422,0.42969 -2.26562,0.64453 -1.19141,0.21484 -2.73438,0.21484 -2.75391,0 -5.15625,-0.99609 -2.40234,-0.99609 -4.17969,-2.79297 -1.75781,-1.8164 -2.77343,-4.3164 -1.01563,-2.5 -1.01563,-5.52735 z"
         style="font-style:normal;font-variant:normal;font-weight:normal;font-stretch:normal;font-size:40px;line-height:0;font-family:'Carter One';-inkscape-font-specification:'Carter One, Normal';font-variant-ligatures:normal;font-variant-caps:normal;font-variant-numeric:normal;font-feature-settings:normal;text-align:start;writing-mode:lr-tb;text-anchor:start;vector-effect:none;fill:#800000;fill-opacity:1;stroke:#ffffff;stroke-width:1;stroke-linecap:butt;stroke-linejoin:miter;stroke-miterlimit:4;stroke-dasharray:none;stroke-dashoffset:0;stroke-opacity:1"
         id="path1030"
         inkscape:connector-curvature="0" />
      <path
         d="m 146.39844,282.0625 q -0.0195,0.17578 -0.0781,0.35156 -0.0391,0.15625 -0.2539,0.25391 -0.0781,0.0391 -0.78125,0.29297 -0.6836,0.23437 -1.60157,0.5664 -0.89843,0.3125 -1.79687,0.625 -0.87891,0.33203 -1.34766,0.50782 -0.23437,0.0976 -0.58594,0.19531 -0.33203,0.11719 -0.66406,0.11719 -0.27344,0 -0.48828,-0.13672 -0.19531,-0.13672 -0.19531,-0.50782 0,-0.85937 0.0391,-1.5625 0.0586,-0.72265 0.13672,-1.5039 0.0781,-0.78125 0.15625,-1.71875 0.0977,-0.95703 0.17578,-2.26563 0.0977,-1.71875 0.21484,-3.30078 0.11719,-1.60156 0.23438,-3.32031 l 0.27344,-3.33984 q 0.0586,-0.82032 0.11718,-1.66016 0.0586,-0.85938 0.11719,-1.75781 l 0.21485,-2.38282 q 0,-0.0391 -0.11719,-0.0391 -0.15625,0 -0.52735,0.0781 -0.37109,0.0586 -0.8789,0.15625 -0.50781,0.0976 -1.13281,0.21484 -0.60547,0.0977 -1.25,0.19531 -0.15625,0 -0.3125,-0.0586 -0.13672,-0.0781 -0.13672,-0.17578 0,-0.0781 0.0391,-0.11719 l 3.16406,-5.52734 q 1.07422,-0.23438 2.30469,-0.46875 1.25,-0.25391 2.67578,-0.44922 1.42578,-0.19531 3.02734,-0.3125 1.60157,-0.13672 3.39844,-0.13672 2.03125,0.0391 3.94531,0.41016 1.9336,0.35156 3.41797,1.21093 1.50391,0.83985 2.40235,2.30469 0.91797,1.44531 0.91797,3.67188 0,1.23046 -0.42969,2.26562 -0.41016,1.03516 -1.07422,1.875 -0.64453,0.82031 -1.42578,1.46484 -0.78125,0.625 -1.50391,1.07422 -0.70312,0.44922 -1.25,0.72266 -0.54687,0.25391 -0.74219,0.33203 0,0.0391 0.0195,0.0977 0.0391,0.0586 0.13671,0.23437 0.0977,0.15625 0.27344,0.46875 0.19531,0.29297 0.48828,0.82031 0.3125,0.46875 0.74219,1.25 0.42969,0.78125 1.01563,1.85547 0.60546,1.05469 1.38671,2.36328 0.78125,1.3086 1.79688,2.8125 0.33203,0.29297 0.76172,0.3711 0.42969,0.0586 0.80078,0.0781 0.37109,0 0.625,0.0391 0.25391,0.0195 0.25391,0.23437 0,0.15625 -0.33204,0.37109 -0.3125,0.19532 -0.74218,0.41016 -0.42969,0.21484 -0.87891,0.41016 -0.42969,0.19531 -0.66406,0.3125 -0.46875,0.23437 -0.97656,0.44922 -0.50782,0.21484 -1.09375,0.48828 -0.58594,0.2539 -1.3086,0.60547 -0.70312,0.35156 -1.60156,0.83984 -0.23438,0.13672 -0.44922,0.17578 -0.19531,0.0586 -0.37109,0.0586 -0.35157,0 -0.60547,-0.17578 -0.25391,-0.15625 -0.42969,-0.39062 -0.17578,-0.23438 -0.29297,-0.48828 -0.0977,-0.23438 -0.17578,-0.39063 l -5.82031,-12.26562 z m 1.1914,-13.22266 q 0.9961,0 2.07032,-0.50781 1.07421,-0.50781 1.95312,-1.30859 0.87891,-0.80078 1.44531,-1.81641 0.56641,-1.01562 0.56641,-2.05078 0,-2.83203 -3.39844,-2.83203 -0.64453,0 -1.07422,0.0976 -0.42968,0.0781 -0.78125,0.11719 z"
         style="font-style:normal;font-variant:normal;font-weight:normal;font-stretch:normal;font-size:40px;line-height:0;font-family:'Carter One';-inkscape-font-specification:'Carter One, Normal';font-variant-ligatures:normal;font-variant-caps:normal;font-variant-numeric:normal;font-feature-settings:normal;text-align:start;writing-mode:lr-tb;text-anchor:start;vector-effect:none;fill:#800000;fill-opacity:1;stroke:#ffffff;stroke-width:1;stroke-linecap:butt;stroke-linejoin:miter;stroke-miterlimit:4;stroke-dasharray:none;stroke-dashoffset:0;stroke-opacity:1"
         id="path1032"
         inkscape:connector-curvature="0" />
      <path
         d="m 182.29687,267.41406 q -0.0781,0.27344 -0.29296,0.78125 -0.21485,0.48828 -0.50782,1.11328 -0.27343,0.625 -0.60547,1.34766 -0.3125,0.70312 -0.625,1.42578 -0.11718,0.27344 -0.21484,0.41016 -0.0977,0.11718 -0.3125,0.17578 -0.21484,0.0586 -0.60547,0.0781 -0.37109,0 -1.05469,0.0195 l -2.71484,0.0586 -0.54687,5.97656 h 10.01953 v 0.76172 q -0.0391,0.0391 -0.33203,0.52734 -0.29297,0.46875 -0.6836,1.13282 -0.39062,0.66406 -0.82031,1.34765 -0.42969,0.66406 -0.72266,1.07422 -0.19531,0.35156 -0.44922,0.54688 -0.2539,0.21484 -0.5664,0.3125 -0.29297,0.0976 -0.66406,0.11718 -0.35157,0.0195 -0.78125,0.0195 -1.75782,0 -3.67188,-0.0781 -1.89453,-0.0781 -3.78906,-0.19531 -1.89453,-0.11719 -3.71094,-0.27344 -1.79687,-0.13672 -3.33984,-0.29297 -0.13672,-0.0195 -0.25391,-0.15625 -0.0977,-0.13672 -0.0977,-0.3125 -0.0781,0 0.0977,-0.33203 0.19531,-0.33203 0.52734,-0.85938 0.33204,-0.52734 0.72266,-1.1914 0.41016,-0.6836 0.78125,-1.36719 l 0.3125,-4.39453 q 0.0781,-1.11328 0.11719,-1.66016 0.0586,-0.54687 0.0586,-0.58593 -1.17187,-0.0195 -1.75781,-0.11719 -0.56641,-0.0977 -0.56641,-0.42969 0,-0.15625 0.27344,-0.58594 0.29297,-0.42968 0.70313,-0.97656 0.41015,-0.56641 0.85937,-1.17187 0.46875,-0.60547 0.82031,-1.11329 l 0.48828,-6.64062 h -0.0586 q -0.42969,0.0195 -0.78125,0.0391 -0.35156,0 -0.64453,0 -0.9375,0 -1.34766,-0.0976 -0.39062,-0.11719 -0.39062,-0.41016 0,-0.13672 0.23437,-0.56641 0.23438,-0.42968 0.58594,-0.97656 0.35156,-0.56641 0.74219,-1.17187 0.39062,-0.625 0.70312,-1.15235 l 1.17188,-1.99219 h 8.16406 l 9.62891,-0.70312 q 0.0195,0 0.0977,0.0195 0.0977,0 0.19532,0.0586 0.0977,0.0391 0.17578,0.15625 0.0977,0.11719 0.0977,0.33204 l -0.29297,1.01562 q -0.13671,0.42969 -0.33203,0.91797 -0.19531,0.46875 -0.42968,0.97656 l -0.85938,2.26563 q -0.13672,0.33203 -0.3125,0.50781 -0.17578,0.17578 -0.74219,0.19531 -1.48437,0.0391 -3.32031,0.13672 -1.81641,0.0781 -4.17969,0.15625 -0.0781,0.27344 -0.0781,0.44922 0,0.15625 -0.0391,0.625 l -0.0977,0.89844 q -0.0391,0.625 -0.11719,1.34765 -0.0781,0.72266 -0.19531,1.77735 0.99609,-0.0391 1.93359,-0.0781 0.95703,-0.0391 1.73828,-0.0586 0.78125,-0.0391 1.34766,-0.0586 0.58594,-0.0195 0.82031,-0.0195 0.15625,0 0.35157,0.11719 0.19531,0.11719 0.19531,0.44922 0,0.15625 -0.0586,0.35156 z"
         style="font-style:normal;font-variant:normal;font-weight:normal;font-stretch:normal;font-size:40px;line-height:0;font-family:'Carter One';-inkscape-font-specification:'Carter One, Normal';font-variant-ligatures:normal;font-variant-caps:normal;font-variant-numeric:normal;font-feature-settings:normal;text-align:start;writing-mode:lr-tb;text-anchor:start;vector-effect:none;fill:#800000;fill-opacity:1;stroke:#ffffff;stroke-width:1;stroke-linecap:butt;stroke-linejoin:miter;stroke-miterlimit:4;stroke-dasharray:none;stroke-dashoffset:0;stroke-opacity:1"
         id="path1034"
         inkscape:connector-curvature="0" />
      <path
         d="m 186.14453,282.19922 q 0.25391,-0.50781 0.52734,-1.13281 0.27344,-0.64454 0.50782,-1.38672 l 0.52734,-1.28907 q -0.35156,-0.52734 -0.72266,-1.13281 -0.35156,-0.625 -0.64453,-1.26953 -0.29297,-0.64453 -0.48828,-1.28906 -0.17578,-0.64453 -0.17578,-1.25 0,-0.0391 0.29297,-0.0586 0.3125,-0.0391 0.76172,-0.0586 0.46875,-0.0195 0.99609,-0.0195 0.54688,-0.0195 0.9961,-0.0195 0.46875,-0.0195 0.76171,-0.0195 0.3125,-0.0195 0.3125,-0.0195 0.44922,-1.17188 0.87891,-2.22657 0.42969,-1.05468 0.85938,-2.1289 0.42968,-1.07422 0.85937,-2.1875 0.42969,-1.13282 0.85938,-2.42188 0.82031,-2.42187 1.60156,-4.25781 0.78125,-1.83594 1.46484,-3.41797 0.0781,-0.19531 0.25391,-0.35156 0.19531,-0.17578 0.41015,-0.29297 0.21485,-0.11719 0.41016,-0.19531 0.21484,-0.0781 0.33203,-0.11719 0.0781,-0.0195 0.58594,-0.17578 0.52734,-0.15625 1.19141,-0.33203 0.66406,-0.17578 1.30859,-0.3125 0.66406,-0.13672 1.05469,-0.13672 h 0.35156 q 0.3125,0 0.58594,0.15625 0.29297,0.13672 0.39062,0.5664 0.9375,2.40235 1.99219,5.25391 1.07422,2.83203 2.08984,6.25 0.54688,1.83594 1.07422,3.47656 0.52735,1.64063 1.05469,3.20313 0.52734,1.5625 1.05469,3.125 0.54687,1.5625 1.11328,3.22265 0.17578,0.70313 0.35156,1.11329 0.19531,0.41015 0.35156,0.64453 0.15625,0.23437 0.25391,0.35156 0.0977,0.0977 0.0977,0.21484 0,0.11719 -0.3711,0.23438 l -4.19922,1.36719 q -0.46875,0.17578 -0.95703,0.35156 -0.48828,0.17578 -0.91797,0.3125 -0.42968,0.13672 -0.76172,0.21484 -0.3125,0.0977 -0.44921,0.0977 h -0.11719 q -0.27344,0 -0.39063,-0.17578 -0.11718,-0.15625 -0.15625,-0.3125 -0.19531,-0.64453 -0.39062,-1.15235 -0.19531,-0.52734 -0.39063,-1.03515 -0.17578,-0.52735 -0.37109,-1.11328 -0.17578,-0.58594 -0.35156,-1.38672 -0.0391,-0.0977 -0.21485,-0.15625 -0.17578,-0.0781 -0.42968,-0.11719 -0.23438,-0.0391 -0.50782,-0.0391 -0.27343,-0.0195 -0.50781,-0.0195 -0.74219,0 -1.21094,0.0195 -0.44922,0 -0.80078,0.0195 -0.35156,0 -0.68359,0.0195 -0.3125,0 -0.78125,0 -0.56641,0 -1.17188,0 -0.58593,-0.0195 -1.07422,-0.0391 l -1.11328,-0.0391 q -0.50781,1.40625 -1.01562,2.63672 -0.50781,1.23047 -1.09375,2.53907 -0.0391,0.15625 -0.19531,0.2539 -0.13672,0.0977 -0.29297,0.0977 -0.11719,0 -0.13672,-0.0195 -1.89453,-0.6836 -3.1836,-1.34766 -1.28906,-0.66406 -2.24609,-1.28906 z m 13.16406,-17.5586 q -0.46875,1.73829 -0.9375,3.16407 -0.44922,1.40625 -0.83984,2.5 -0.37109,1.09375 -0.64453,1.85547 -0.27344,0.74218 -0.39063,1.15234 v 0.17578 q 0,0.11719 -0.0195,0.15625 h 4.6875 q -0.21484,-0.95703 -0.46875,-1.93359 -0.23437,-0.97657 -0.46875,-2.05078 -0.23437,-1.07422 -0.46875,-2.30469 -0.23437,-1.23047 -0.44922,-2.71485 z"
         style="font-style:normal;font-variant:normal;font-weight:normal;font-stretch:normal;font-size:40px;line-height:0;font-family:'Carter One';-inkscape-font-specification:'Carter One, Normal';font-variant-ligatures:normal;font-variant-caps:normal;font-variant-numeric:normal;font-feature-settings:normal;text-align:start;writing-mode:lr-tb;text-anchor:start;vector-effect:none;fill:#800000;fill-opacity:1;stroke:#ffffff;stroke-width:1;stroke-linecap:butt;stroke-linejoin:miter;stroke-miterlimit:4;stroke-dasharray:none;stroke-dashoffset:0;stroke-opacity:1"
         id="path1036"
         inkscape:connector-curvature="0" />
      <path
         d="m 217.04297,284.25 q 0.0977,-1.42578 0.19531,-2.75391 0.0977,-1.32812 0.17578,-2.57812 l 0.70313,-9.21875 q 0.11718,-1.05469 0.19531,-1.91406 0.0781,-0.87891 0.11719,-1.69922 0.0586,-0.83985 0.0977,-1.67969 0.0586,-0.85938 0.11719,-1.89453 -0.64453,-0.0195 -1.36719,-0.0195 -0.70312,0 -1.48437,0 h -3.76953 q -0.21485,0 -0.27344,-0.15625 -0.0391,-0.17578 -0.0391,-0.3125 v -0.13672 l 2.14843,-5.64453 -0.0195,-0.0781 q 0,-0.0976 0.11719,-0.15625 0.13672,-0.0781 0.58594,-0.11719 2.69531,-0.15625 5.21484,-0.29296 2.53906,-0.15625 5,-0.27344 2.48047,-0.11719 4.94141,-0.23438 2.48047,-0.11718 5.09765,-0.21484 0.23438,0 0.48829,0.0586 0.27343,0.0586 0.27343,0.42969 0,0.0391 -0.0195,0.0781 -0.0195,0.0391 -0.0195,0.0781 -0.3125,0.80078 -0.58594,1.52344 -0.2539,0.72265 -0.50781,1.42578 -0.25391,0.70312 -0.52734,1.42578 -0.25391,0.72266 -0.56641,1.52344 -0.0195,0.0195 -0.0781,0.19531 -0.0586,0.15625 -0.17579,0.37109 -0.11718,0.19532 -0.3125,0.3711 -0.19531,0.17578 -0.48828,0.19531 -0.0977,-0.0195 -0.19531,-0.0195 -0.0977,0 -0.21484,0 h -5.21485 q -0.0977,0.99609 -0.19531,2.10937 -0.0781,1.11329 -0.19531,2.16797 l -1.42578,15.25391 q -0.0195,0.17578 -0.0781,0.35156 -0.0391,0.17578 -0.2539,0.25391 l -5.52735,1.99219 q -0.21484,0.0781 -0.5664,0.19531 -0.35157,0.11719 -0.6836,0.11719 -0.27344,0 -0.48828,-0.13672 -0.19531,-0.13672 -0.19531,-0.50782 z"
         style="font-style:normal;font-variant:normal;font-weight:normal;font-stretch:normal;font-size:40px;line-height:0;font-family:'Carter One';-inkscape-font-specification:'Carter One, Normal';font-variant-ligatures:normal;font-variant-caps:normal;font-variant-numeric:normal;font-feature-settings:normal;text-align:start;writing-mode:lr-tb;text-anchor:start;vector-effect:none;fill:#800000;fill-opacity:1;stroke:#ffffff;stroke-width:1;stroke-linecap:butt;stroke-linejoin:miter;stroke-miterlimit:4;stroke-dasharray:none;stroke-dashoffset:0;stroke-opacity:1"
         id="path1038"
         inkscape:connector-curvature="0" />
    </g>
    <g
       aria-label="WALL"
       style="font-style:normal;font-weight:normal;font-size:10.58333302px;line-height:130.05000305;font-family:sans-serif;letter-spacing:0px;word-spacing:0px;display:inline;opacity:1;vector-effect:none;fill:#800000;fill-opacity:1;stroke:#ffffff;stroke-width:0.26458332;stroke-linecap:butt;stroke-linejoin:miter;stroke-miterlimit:4;stroke-dasharray:none;stroke-dashoffset:0;stroke-opacity:1"
       id="text45-8-3-6"
       transform="translate(-3.0489095,-0.46508788)">
      <path
         d="m 109.08745,122.59139 q 0.0258,-0.093 0.0568,-0.14986 0.031,-0.062 0.13953,-0.0879 l 1.52445,-0.3514 q 0.0103,0 0.0258,-0.005 0.0155,-0.005 0.0258,-0.005 0.0724,0 0.0982,0.062 0.031,0.062 0.031,0.11885 0,0.0103 -0.005,0.0413 0,0.031 -0.005,0.0413 l -2.13941,6.5009 q -0.0827,0.21187 -0.13953,0.34623 -0.0517,0.12919 -0.10852,0.21704 -0.0517,0.0827 -0.12402,0.13953 -0.0672,0.0568 -0.18603,0.11369 -0.11369,0.0568 -0.28939,0.12919 -0.1757,0.0775 -0.44442,0.2067 -0.093,0.0465 -0.14469,0.0465 -0.0827,0 -0.12403,-0.062 -0.0413,-0.062 -0.0672,-0.13953 l -0.88366,-3.14709 -1.10588,2.27893 q -0.0258,0.062 -0.11885,0.16536 -0.093,0.10336 -0.21188,0.21188 -0.11369,0.10852 -0.23254,0.21187 -0.11369,0.0982 -0.18604,0.1602 -0.0672,0.0568 -0.14469,0.11369 -0.0724,0.0568 -0.14986,0.10335 -0.0775,0.0465 -0.14986,0.0724 -0.0672,0.031 -0.1292,0.031 -0.13435,0 -0.1757,-0.14986 l -2.00504,-7.06934 q -0.0103,-0.0413 -0.0258,-0.0827 -0.0103,-0.0413 -0.0103,-0.0775 0,-0.12919 0.062,-0.21704 0.062,-0.0879 0.21704,-0.14987 0.15503,-0.062 0.41341,-0.0982 0.25838,-0.0413 0.65629,-0.0672 0.18604,-0.0258 0.31006,-0.0362 0.12919,-0.0103 0.21704,-0.0103 0.14986,0 0.19637,0.0465 0.0465,0.0465 0.0827,0.15503 l 1.06454,4.09794 0.88366,-1.51929 -0.35656,-1.55546 q -0.031,-0.12402 -0.0258,-0.18603 0,-0.11886 0.062,-0.19121 0.062,-0.0723 0.20671,-0.11885 0.14469,-0.0465 0.37723,-0.0827 0.23772,-0.0362 0.57878,-0.0827 0.14986,-0.0207 0.25838,-0.031 0.10852,-0.0103 0.18604,-0.0103 0.15503,0 0.21187,0.0465 0.0568,0.0465 0.0827,0.14986 l 0.7028,3.18327 z"
         style="font-style:normal;font-variant:normal;font-weight:normal;font-stretch:normal;font-size:10.58333302px;font-family:'Carter One';-inkscape-font-specification:'Carter One, Normal';font-variant-ligatures:normal;font-variant-caps:normal;font-variant-numeric:normal;font-feature-settings:normal;text-align:start;writing-mode:lr-tb;text-anchor:start;vector-effect:none;fill:#800000;fill-opacity:1;stroke:#ffffff;stroke-width:0.26458332;stroke-linecap:butt;stroke-linejoin:miter;stroke-miterlimit:4;stroke-dasharray:none;stroke-dashoffset:0;stroke-opacity:1"
         id="path1010"
         inkscape:connector-curvature="0" />
      <path
         d="m 110.49305,129.22664 q 0.0672,-0.13435 0.13952,-0.29972 0.0724,-0.17053 0.13436,-0.3669 l 0.13953,-0.34107 q -0.093,-0.13952 -0.1912,-0.29972 -0.093,-0.16536 -0.17054,-0.3359 -0.0775,-0.17053 -0.12919,-0.34106 -0.0465,-0.17053 -0.0465,-0.33073 0,-0.0103 0.0775,-0.0155 0.0827,-0.0103 0.20154,-0.0155 0.12402,-0.005 0.26355,-0.005 0.14469,-0.005 0.26355,-0.005 0.12402,-0.005 0.20153,-0.005 0.0827,-0.005 0.0827,-0.005 0.11885,-0.31006 0.23254,-0.58911 0.11369,-0.27905 0.22738,-0.56327 0.11368,-0.28422 0.22737,-0.57878 0.11369,-0.29972 0.22738,-0.64078 0.21704,-0.64079 0.42375,-1.12655 0.2067,-0.48576 0.38757,-0.90434 0.0207,-0.0517 0.0672,-0.093 0.0517,-0.0465 0.10852,-0.0775 0.0568,-0.031 0.10852,-0.0517 0.0568,-0.0207 0.0879,-0.031 0.0207,-0.005 0.15503,-0.0465 0.13952,-0.0413 0.31522,-0.0878 0.1757,-0.0465 0.34624,-0.0827 0.1757,-0.0362 0.27905,-0.0362 h 0.093 q 0.0827,0 0.15503,0.0413 0.0775,0.0362 0.10335,0.14987 0.24805,0.63562 0.5271,1.39009 0.28422,0.74931 0.55294,1.65365 0.14469,0.48576 0.28422,0.91984 0.13952,0.43408 0.27905,0.84749 0.13953,0.41341 0.27905,0.82682 0.1447,0.41342 0.29456,0.85266 0.0465,0.18604 0.093,0.29456 0.0517,0.10852 0.093,0.17053 0.0413,0.062 0.0672,0.093 0.0258,0.0258 0.0258,0.0568 0,0.031 -0.0982,0.062 l -1.11105,0.36173 q -0.12402,0.0465 -0.25321,0.093 -0.12919,0.0465 -0.24288,0.0827 -0.11369,0.0362 -0.20154,0.0568 -0.0827,0.0258 -0.11886,0.0258 h -0.031 q -0.0724,0 -0.10335,-0.0465 -0.031,-0.0413 -0.0413,-0.0827 -0.0517,-0.17053 -0.10335,-0.30489 -0.0517,-0.13953 -0.10335,-0.27388 -0.0465,-0.13953 -0.0982,-0.29456 -0.0465,-0.15503 -0.093,-0.3669 -0.0103,-0.0258 -0.0568,-0.0413 -0.0465,-0.0207 -0.11369,-0.031 -0.062,-0.0103 -0.13435,-0.0103 -0.0724,-0.005 -0.13436,-0.005 -0.19637,0 -0.3204,0.005 -0.11885,0 -0.21187,0.005 -0.093,0 -0.18087,0.005 -0.0827,0 -0.2067,0 -0.14987,0 -0.31006,0 -0.15503,-0.005 -0.28422,-0.0103 l -0.29456,-0.0103 q -0.13436,0.37207 -0.26872,0.69763 -0.13435,0.32556 -0.28938,0.6718 -0.0103,0.0413 -0.0517,0.0672 -0.0362,0.0258 -0.0775,0.0258 -0.031,0 -0.0362,-0.005 -0.50126,-0.18087 -0.84232,-0.35657 -0.34107,-0.1757 -0.59428,-0.34107 z m 3.48299,-4.64571 q -0.12403,0.45992 -0.24805,0.83716 -0.11885,0.37207 -0.22221,0.66146 -0.0982,0.28939 -0.17053,0.49093 -0.0724,0.19637 -0.10335,0.30489 v 0.0465 q 0,0.031 -0.005,0.0413 h 1.24023 q -0.0568,-0.25322 -0.12402,-0.5116 -0.062,-0.25838 -0.12402,-0.5426 -0.062,-0.28422 -0.12403,-0.60978 -0.062,-0.32557 -0.11885,-0.71831 z"
         style="font-style:normal;font-variant:normal;font-weight:normal;font-stretch:normal;font-size:10.58333302px;font-family:'Carter One';-inkscape-font-specification:'Carter One, Normal';font-variant-ligatures:normal;font-variant-caps:normal;font-variant-numeric:normal;font-feature-settings:normal;text-align:start;writing-mode:lr-tb;text-anchor:start;vector-effect:none;fill:#800000;fill-opacity:1;stroke:#ffffff;stroke-width:0.26458332;stroke-linecap:butt;stroke-linejoin:miter;stroke-miterlimit:4;stroke-dasharray:none;stroke-dashoffset:0;stroke-opacity:1"
         id="path1012"
         inkscape:connector-curvature="0" />
      <path
         d="m 120.77149,122.19865 q -0.005,0.12402 -0.0207,0.31006 -0.0155,0.18087 -0.0362,0.38757 -0.0155,0.20154 -0.0413,0.41341 -0.0207,0.20671 -0.0413,0.38241 -0.0155,0.1757 -0.0258,0.30489 -0.0103,0.12402 -0.0103,0.1602 -0.0207,0.32039 -0.0465,0.59427 -0.0207,0.27389 -0.0465,0.54261 -0.0258,0.26871 -0.0568,0.5581 -0.0258,0.28422 -0.0568,0.63046 -0.031,0.34623 -0.0723,0.76997 -0.0362,0.42375 -0.0775,0.97152 l 2.13941,-0.21704 q 0.14469,-0.0155 0.23771,-0.0155 0.11369,0 0.13952,0.0362 0.031,0.0362 0.031,0.11369 0,0.0103 -0.005,0.031 -0.005,0.0155 -0.0258,0.0672 -0.0155,0.0517 -0.0517,0.14987 -0.031,0.0982 -0.0879,0.27388 l -0.11369,0.34107 q -0.0568,0.16536 -0.10852,0.29972 -0.0465,0.12919 -0.11886,0.22737 -0.0723,0.093 -0.18086,0.14987 -0.10853,0.0568 -0.27906,0.0723 -0.10852,0.0103 -0.29455,0.0155 -0.18604,0.0103 -0.42892,0.0155 -0.24288,0.0103 -0.5271,0.0207 -0.27905,0.0103 -0.57361,0.0258 -0.28938,0.0103 -0.58394,0.0103 -0.29455,0.005 -0.5581,0.0103 -0.26355,0.005 -0.48576,0.0103 -0.22221,0.005 -0.36691,0.0103 -0.13435,0 -0.19637,-0.0207 -0.0568,-0.0207 -0.0568,-0.0672 0,-0.0568 0.0362,-0.16537 0.0362,-0.10335 0.093,-0.23254 0.0568,-0.13436 0.12402,-0.27388 0.0724,-0.1447 0.13953,-0.27906 l 0.13953,-1.84485 q 0.0413,-0.47025 0.0827,-0.95601 0.0413,-0.48576 0.0724,-0.94051 l 0.0879,-1.36943 q 0.031,-0.48575 0.0413,-0.7028 0.0103,-0.2222 0.0103,-0.24287 0.0103,-0.093 0.0155,-0.15503 0.005,-0.062 0.0155,-0.10336 0.0155,-0.0413 0.0413,-0.062 0.0258,-0.0207 0.0775,-0.031 l 1.81385,-0.42892 q 0.0568,-0.0207 0.13952,-0.0207 0.0568,0 0.0775,0.0362 0.0258,0.031 0.0258,0.12403 0,0.0103 -0.005,0.031 0,0.0155 0,0.031 z"
         style="font-style:normal;font-variant:normal;font-weight:normal;font-stretch:normal;font-size:10.58333302px;font-family:'Carter One';-inkscape-font-specification:'Carter One, Normal';font-variant-ligatures:normal;font-variant-caps:normal;font-variant-numeric:normal;font-feature-settings:normal;text-align:start;writing-mode:lr-tb;text-anchor:start;vector-effect:none;fill:#800000;fill-opacity:1;stroke:#ffffff;stroke-width:0.26458332;stroke-linecap:butt;stroke-linejoin:miter;stroke-miterlimit:4;stroke-dasharray:none;stroke-dashoffset:0;stroke-opacity:1"
         id="path1014"
         inkscape:connector-curvature="0" />
      <path
         d="m 126.05282,122.19865 q -0.005,0.12402 -0.0207,0.31006 -0.0155,0.18087 -0.0362,0.38757 -0.0155,0.20154 -0.0413,0.41341 -0.0207,0.20671 -0.0413,0.38241 -0.0155,0.1757 -0.0258,0.30489 -0.0103,0.12402 -0.0103,0.1602 -0.0207,0.32039 -0.0465,0.59427 -0.0207,0.27389 -0.0465,0.54261 -0.0258,0.26871 -0.0568,0.5581 -0.0258,0.28422 -0.0568,0.63046 -0.031,0.34623 -0.0723,0.76997 -0.0362,0.42375 -0.0775,0.97152 l 2.13941,-0.21704 q 0.14469,-0.0155 0.23771,-0.0155 0.11369,0 0.13953,0.0362 0.031,0.0362 0.031,0.11369 0,0.0103 -0.005,0.031 -0.005,0.0155 -0.0258,0.0672 -0.0155,0.0517 -0.0517,0.14987 -0.031,0.0982 -0.0878,0.27388 l -0.11369,0.34107 q -0.0568,0.16536 -0.10852,0.29972 -0.0465,0.12919 -0.11886,0.22737 -0.0723,0.093 -0.18086,0.14987 -0.10852,0.0568 -0.27906,0.0723 -0.10852,0.0103 -0.29455,0.0155 -0.18604,0.0103 -0.42892,0.0155 -0.24287,0.0103 -0.52709,0.0207 -0.27906,0.0103 -0.57361,0.0258 -0.28939,0.0103 -0.58395,0.0103 -0.29455,0.005 -0.5581,0.0103 -0.26355,0.005 -0.48576,0.0103 -0.22221,0.005 -0.3669,0.0103 -0.13436,0 -0.19637,-0.0207 -0.0568,-0.0207 -0.0568,-0.0672 0,-0.0568 0.0362,-0.16537 0.0362,-0.10335 0.093,-0.23254 0.0569,-0.13436 0.12403,-0.27388 0.0723,-0.1447 0.13952,-0.27906 l 0.13953,-1.84485 q 0.0413,-0.47025 0.0827,-0.95601 0.0413,-0.48576 0.0724,-0.94051 l 0.0879,-1.36943 q 0.031,-0.48575 0.0413,-0.7028 0.0103,-0.2222 0.0103,-0.24287 0.0103,-0.093 0.0155,-0.15503 0.005,-0.062 0.0155,-0.10336 0.0155,-0.0413 0.0413,-0.062 0.0258,-0.0207 0.0775,-0.031 l 1.81384,-0.42892 q 0.0568,-0.0207 0.13953,-0.0207 0.0568,0 0.0775,0.0362 0.0258,0.031 0.0258,0.12403 0,0.0103 -0.005,0.031 0,0.0155 0,0.031 z"
         style="font-style:normal;font-variant:normal;font-weight:normal;font-stretch:normal;font-size:10.58333302px;font-family:'Carter One';-inkscape-font-specification:'Carter One, Normal';font-variant-ligatures:normal;font-variant-caps:normal;font-variant-numeric:normal;font-feature-settings:normal;text-align:start;writing-mode:lr-tb;text-anchor:start;vector-effect:none;fill:#800000;fill-opacity:1;stroke:#ffffff;stroke-width:0.26458332;stroke-linecap:butt;stroke-linejoin:miter;stroke-miterlimit:4;stroke-dasharray:none;stroke-dashoffset:0;stroke-opacity:1"
         id="path1016"
         inkscape:connector-curvature="0" />
    </g>
  </g>
</svg>
